<svg width="192" height="192" viewBox="0 0 192 192" fill="none" xmlns="http://www.w3.org/2000/svg">
<rect width="192" height="192" rx="96" fill="#1359C8"/>
<path d="M61.6105 136.586C55.7908 136.586 50.5757 135.641 45.9653 133.752C41.3549 131.862 37.6514 129.066 34.855 125.362C32.1341 121.659 30.698 117.199 30.5469 111.984H51.1804C51.4827 114.932 52.503 117.199 54.2414 118.787C55.9797 120.298 58.2471 121.054 61.0436 121.054C63.9157 121.054 66.1831 120.412 67.8459 119.127C69.5086 117.766 70.34 115.915 70.34 113.572C70.34 111.606 69.6598 109.981 68.2993 108.697C67.0145 107.412 65.3895 106.354 63.4244 105.522C61.5349 104.691 58.814 103.746 55.2617 102.688C50.1222 101.101 45.9275 99.5136 42.6775 97.9264C39.4276 96.3392 36.6311 93.9962 34.2881 90.8974C31.9451 87.7986 30.7736 83.7551 30.7736 78.7667C30.7736 71.3599 33.4567 65.578 38.8229 61.421C44.1892 57.1885 51.1804 55.0723 59.7965 55.0723C68.5639 55.0723 75.6306 57.1885 80.9969 61.421C86.3631 65.578 89.2351 71.3977 89.613 78.8801H68.6395C68.4883 76.3104 67.5435 74.3075 65.8052 72.8715C64.0668 71.3599 61.8372 70.6041 59.1163 70.6041C56.7733 70.6041 54.8838 71.2465 53.4478 72.5314C52.0117 73.7406 51.2937 75.5168 51.2937 77.8598C51.2937 80.4295 52.503 82.4324 54.9216 83.8684C57.3402 85.3045 61.1192 86.8539 66.2587 88.5166C71.3981 90.255 75.5551 91.9178 78.7294 93.5049C81.9794 95.0921 84.7759 97.3973 87.1189 100.421C89.4619 103.444 90.6334 107.336 90.6334 112.098C90.6334 116.633 89.4619 120.752 87.1189 124.455C84.8515 128.159 81.5259 131.106 77.1423 133.298C72.7586 135.49 67.5813 136.586 61.6105 136.586Z" fill="white"/>
<path fill-rule="evenodd" clip-rule="evenodd" d="M136.026 97.0662L124.59 114.623L139.101 136.439H162.274L136.026 97.0662ZM105.732 136.439H85.1838L111.385 94.866L84.6016 54.6904H107.775L124.195 79.378L138.635 54.6904H158.978L105.732 136.439Z" fill="#FFAA01"/>
</svg>
