<!-- <?xml version="1.0" encoding="utf-8"?> -->
<!-- Svg Vector Icons : http://www.onlinewebfonts.com/icon -->
<!-- <!DOCTYPE svg PUBLIC "-//W3C//DTD SVG 1.1//EN" "http://www.w3.org/Graphics/SVG/1.1/DTD/svg11.dtd"> -->
<svg version="1.1" xmlns="http://www.w3.org/2000/svg" xmlns:xlink="http://www.w3.org/1999/xlink" x="0px" y="0px" viewBox="0 0 256 256" enable-background="new 0 0 256 256" xml:space="preserve">
<metadata> Svg Vector Icons : http://www.onlinewebfonts.com/icon </metadata>
<g><g><path fill="#000000" d="M191,117.9c-3.4-3.2-8.7-3-11.9,0.4l-61,64.9l-43.7-36.3c-3.6-3-8.9-2.5-11.9,1.1s-2.5,8.9,1.1,11.9l49.8,41.4c3.4,2.8,8.5,2.5,11.5-0.7l66.4-70.6C194.6,126.4,194.4,121.1,191,117.9z"/><path fill="#000000" d="M186.1,35.9C182.5,21.1,169.2,10,153.3,10h-50.5c-16,0-29.3,11.1-32.8,25.9c-24.4,3.6-43.1,24.5-43.1,49.9v109.6c0,27.9,22.6,50.6,50.6,50.6h101.1c27.9,0,50.6-22.6,50.6-50.6V85.9C229.1,60.5,210.4,39.6,186.1,35.9z M102.7,26.9h50.5c9.3,0,16.9,7.5,16.9,16.8v16.9H85.9V43.7C85.9,34.4,93.4,26.9,102.7,26.9z M212.3,195.4c0,18.6-15.1,33.7-33.7,33.7H77.4c-18.6,0-33.7-15.1-33.7-33.7V85.9C43.7,70.2,54.5,57,69,53.3v7.3h-2.1c-4.6,0-8.4,3.8-8.4,8.4s3.8,8.4,8.4,8.4h124.3c4.6,0,8.4-3.8,8.4-8.4s-3.8-8.4-8.4-8.4H187v-7.3c14.5,3.8,25.3,16.9,25.3,32.6V195.4z"/></g></g>
</svg>